<svg id="Layer_1" data-name="Layer 1" xmlns="http://www.w3.org/2000/svg" viewBox="0 0 182.3 175.56"><defs><style>.cls-1{fill:#184c7f;}.cls-2{fill:#71bfff;}.cls-3{fill:#3198ff;}</style></defs><path class="cls-1" d="M92.34,82.94,21.68,9.16a5.1,5.1,0,0,0-8.78,3.53V166.61a5.1,5.1,0,0,0,8.78,3.52L92.34,96.35A9.69,9.69,0,0,0,92.34,82.94Z"/><path class="cls-1" d="M92.5,96.35l70.66,73.78a5.1,5.1,0,0,0,8.78-3.52V12.69a5.1,5.1,0,0,0-8.78-3.53L92.5,82.94A9.69,9.69,0,0,0,92.5,96.35Z"/><path class="cls-2" d="M107.29,92.12l46.14,48.16a4.14,4.14,0,0,0,7.13-2.86V41.88A4.14,4.14,0,0,0,153.43,39L107.29,87.18A3.58,3.58,0,0,0,107.29,92.12Z"/><path class="cls-3" d="M77.51,87,32.05,39.52a4.43,4.43,0,0,0-7.63,3.06v94.14a4.43,4.43,0,0,0,7.63,3.06L77.51,92.31A3.85,3.85,0,0,0,77.51,87Z"/></svg>