<?xml version="1.0" standalone="no"?>
<!DOCTYPE svg PUBLIC "-//W3C//DTD SVG 20010904//EN"
 "http://www.w3.org/TR/2001/REC-SVG-20010904/DTD/svg10.dtd">
<svg version="1.0" xmlns="http://www.w3.org/2000/svg"
 width="728.000000pt" height="728.000000pt" viewBox="0 0 728.000000 728.000000"
 preserveAspectRatio="xMidYMid meet">
<metadata>
Created by potrace 1.14, written by Peter Selinger 2001-2017
</metadata>
<g transform="translate(0.000000,728.000000) scale(0.100000,-0.100000)"
fill="#000000" stroke="none">
<path d="M658 6826 c-57 -20 -95 -53 -119 -104 l-24 -47 1 -3110 c1 -1710 3
-3120 6 -3132 7 -36 57 -99 96 -120 50 -28 105 -34 162 -17 55 16 56 17 520
504 85 90 196 205 245 256 50 51 153 159 230 240 77 80 172 179 210 219 39 40
144 150 235 245 91 95 197 206 235 246 39 39 136 141 216 226 221 231 262 273
377 394 59 61 186 194 284 295 97 101 217 227 267 279 l92 95 102 -106 c56
-58 179 -186 272 -284 94 -98 197 -206 230 -240 33 -34 137 -142 230 -240 94
-98 201 -210 238 -249 61 -63 290 -302 452 -471 33 -35 128 -134 210 -220 83
-86 184 -192 225 -235 41 -42 147 -153 235 -245 88 -92 203 -212 255 -266 52
-54 156 -162 230 -240 174 -183 178 -187 220 -201 98 -32 201 6 250 92 l25 45
1 3120 0 3119 -25 51 c-44 86 -146 130 -238 102 -44 -14 -61 -27 -152 -121
-36 -38 -103 -107 -148 -153 -46 -47 -83 -86 -83 -87 0 -1 -48 -52 -107 -113
-60 -61 -184 -191 -278 -289 -93 -98 -203 -212 -242 -252 -40 -41 -73 -76 -73
-76 0 -1 -46 -50 -102 -108 -57 -59 -168 -175 -248 -259 -80 -84 -172 -180
-205 -214 -33 -34 -109 -114 -170 -177 -127 -132 -420 -438 -515 -538 -100
-104 -347 -362 -474 -495 l-114 -119 -89 91 c-81 84 -361 376 -463 483 -53 55
-363 379 -445 465 -33 34 -133 138 -222 231 -88 93 -190 199 -225 235 -34 36
-135 141 -223 233 -88 92 -194 203 -235 246 -41 42 -156 162 -255 266 -99 103
-211 221 -250 261 -38 40 -133 138 -210 219 -208 218 -235 243 -266 260 -40
20 -107 24 -151 10z"/>
</g>
</svg>
